<svg width="24" height="24" viewBox="0 0 24 24" fill="none" xmlns="http://www.w3.org/2000/svg">
<path fill-rule="evenodd" clip-rule="evenodd" d="M22.0031 0.75H1.99688C1.31037 0.755104 0.755104 1.31037 0.75 1.99688V22.0031C0.755104 22.6896 1.31037 23.2449 1.99688 23.25H12.7687V14.55H9.84375V11.1469H12.7687V8.64375C12.7687 5.7375 14.5406 4.15313 17.1469 4.15313C18.0188 4.15313 18.8906 4.15313 19.7625 4.28438V7.3125H17.9719C16.5563 7.3125 16.2844 7.9875 16.2844 8.97188V11.1375H19.6594L19.2188 14.5406H16.2844V23.25H22.0031C22.6896 23.2449 23.2449 22.6896 23.25 22.0031V1.99688C23.2449 1.31037 22.6896 0.755104 22.0031 0.75Z" fill="#001133" fill-opacity="0.6"/>
</svg>
