<svg width="24" height="24" viewBox="0 0 24 24" fill="none" xmlns="http://www.w3.org/2000/svg">
<path fill-rule="evenodd" clip-rule="evenodd" d="M21.5719 0.750031H2.42812C1.52086 0.744576 0.775469 1.46498 0.75 2.37191V21.5625C0.770489 22.4716 1.51885 23.1949 2.42812 23.1844H21.5719C22.4812 23.1949 23.2295 22.4716 23.25 21.5625V2.37191C23.2245 1.46498 22.4791 0.744576 21.5719 0.750031ZM7.41563 19.8844H4.11563V9.18753H7.41563V19.8844ZM5.80312 7.69691C4.74939 7.69721 3.88795 6.85658 3.8625 5.80316C3.84395 5.28301 4.04245 4.77855 4.41048 4.41051C4.77852 4.04248 5.28297 3.84398 5.80312 3.86253C6.82013 3.93335 7.60895 4.779 7.60895 5.79847C7.60895 6.81793 6.82013 7.66359 5.80312 7.73441V7.69691ZM19.95 19.8188H16.6875V14.5875C16.6875 13.3407 16.6875 11.7188 14.9437 11.7188C13.2 11.7188 12.9375 13.0875 12.9375 14.4657V19.7625H9.6V9.18753H12.7125V10.5938H12.7781C13.4285 9.46436 14.6543 8.79179 15.9563 8.85003C19.3219 8.85003 19.95 11.1 19.95 13.9594V19.8188Z" fill="#001133" fill-opacity="0.6"/>
</svg>
