<svg width="22" height="18" viewBox="0 0 22 18" fill="none" xmlns="http://www.w3.org/2000/svg">
<path fill-rule="evenodd" clip-rule="evenodd" d="M7.175 17.3813C10.3737 17.4014 13.4472 16.1396 15.709 13.8778C17.9708 11.6159 19.2326 8.54242 19.2125 5.34375V4.79063C20.0334 4.18921 20.7439 3.45016 21.3125 2.60625C20.5395 2.94431 19.7217 3.16852 18.8844 3.27188C19.7721 2.74292 20.4382 1.91032 20.7594 0.928129C19.9321 1.42448 19.0248 1.77341 18.0781 1.95938C16.7674 0.562715 14.6826 0.218991 12.9929 1.12093C11.3031 2.02287 10.4285 3.94619 10.8594 5.8125C7.45794 5.64555 4.28795 4.0401 2.14063 1.39688C1.02965 3.32511 1.6035 5.78445 3.45313 7.02188C2.79557 6.99652 2.15324 6.81666 1.57812 6.49688V6.54375C1.56608 8.5448 2.95255 10.2828 4.90625 10.7156C4.29466 10.8801 3.65402 10.9057 3.03125 10.7906C3.59369 12.4876 5.16267 13.6475 6.95 13.6875C5.45864 14.888 3.60509 15.5488 1.69063 15.5625C1.35496 15.5528 1.02008 15.5246 0.6875 15.4781C2.62527 16.7127 4.87738 17.3636 7.175 17.3531" fill="#001133" fill-opacity="0.6"/>
</svg>
